{"title":"The.Wire.S01.DVDRiP.x264.DBO","uid":6317653,"size":10299662804,"categoryP":"video","categoryS":"tv_shows","magnet":"?xt=urn:btih:29b1582275d66f9a5ffa80bf9bcbd567aa3e5e6a&amp;dn=The.Wire.S01.DVDRiP.x264.DBO&amp;tr=udp%3A%2F%2Ftracker.openbittorrent.com%3A80&amp;tr=udp%3A%2F%2Fopen.demonii.com%3A1337&amp;tr=udp%3A%2F%2Ftracker.coppersurfer.tk%3A6969&amp;tr=udp%3A%2F%2Fexodus.desync.com%3A6969","seeders":2,"leechers":0,"uploader":"thewire-reloaded","files":13,"time":1302761835,"description":"General\nUnique ID                        : 197390486773393887824603155084993422500 (0x948006613FCC436D843D952A00C0E4A4)\nComplete name                    : The.Wire.S01.DVDRiP.x264-DBO/The.Wire.S01E01.DVDRiP.x264-DBO.mkv\nFormat                           : Matroska\nFile size                        : 826 MiB\nDuration                         : 1h 2mn\nOverall bit rate                 : 1 859 Kbps\nEncoded date                     : UTC 2008-07-19 21:22:22\nWriting application              : mkvmerge v2.1.0 ('Another Place To Fall') built on Aug 19 2007 13:40:07\nWriting library                  : libebml v0.7.7 + libmatroska v0.8.1\n\nVideo\nID                               : 1\nFormat                           : AVC\nFormat/Info                      : Advanced Video Codec\nFormat profile                   : &lt;a class=&quot;__cf_email__&quot; href=&quot;/cdn-cgi/l/email-protection&quot; data-cfemail=&quot;7038191718303c455e41&quot;&gt;[email&amp;#160;protected]&lt;/a&gt;&lt;script cf-hash='f9e31' type=&quot;text/javascript&quot;&gt;\n/* &lt;![CDATA[ */!function(){try{var t=&quot;currentScript&quot;in document?document.currentScript:function(){for(var t=document.getElementsByTagName(&quot;script&quot;),e=t.length;e--;)if(t[e].getAttribute(&quot;cf-hash&quot;))return t[e]}();if(t&amp;&amp;t.previousSibling){var e,r,n,i,c=t.previousSibling,a=c.getAttribute(&quot;data-cfemail&quot;);if(a){for(e=&quot;&quot;,r=parseInt(a.substr(0,2),16),n=2;a.length-n;n+=2)i=parseInt(a.substr(n,2),16)^r,e+=String.fromCharCode(i);e=document.createTextNode(e),c.parentNode.replaceChild(e,c)}}}catch(u){}}();/* ]]&gt; */&lt;/script&gt;\nFormat settings, CABAC           : Yes\nFormat settings, ReFrames        : 10 frames\nCodec ID                         : V_MPEG4/ISO/AVC\nDuration                         : 1h 2mn\nBit rate                         : 1 374 Kbps\nNominal bit rate                 : 3 500 Kbps\nWidth                            : 712 pixels\nHeight                           : 478 pixels\nDisplay aspect ratio             : 4:3\nOriginal display aspect ratio    : 3:2\nFrame rate                       : 23.976 fps\nColor space                      : YUV\nChroma subsampling               : 4:2:0\nBit depth                        : 8 bits\nScan type                        : Progressive\nBits/(Pixel*Frame)               : 0.168\nStream size                      : 611 MiB (74%)\nTitle                            : The Wire - S01E01\nWriting library                  : x264 core 60\nEncoding settings                : cabac=1 / ref=10 / deblock=1:-2:-1 / analyse=0x3:0x113 / me=umh / subme=7 / psy_rd=1.000000 / brdo=1 / mixed_ref=1 / me_range=24 / chroma_me=1 / trellis=2 / 8x8dct=1 / cqm=0 / deadzone=21,11 / chroma_qp_offset=0 / threads=6 / nr=0 / decimate=1 / mbaff=0 / bframes=16 / b_pyramid=1 / b_adapt=1 / b_bias=0 / direct=3 / wpredb=1 / bime=1 / keyint=250 / keyint_min=25 / scenecut=40(pre) / rc=2pass / bitrate=3500 / ratetol=1.0 / rceq='blurCplx^(1-qComp)' / qcomp=1.00 / qpmin=10 / qpmax=51 / qpstep=4 / cplxblur=20.0 / qblur=0.5 / ip_ratio=1.40 / pb_ratio=1.30 / aq=2:0.75\nLanguage                         : English\n\nAudio #1\nID                               : 2\nFormat                           : AC-3\nFormat/Info                      : Audio Coding 3\nMode extension                   : CM (complete main)\nCodec ID                         : A_AC3\nDuration                         : 1h 2mn\nBit rate mode                    : Constant\nBit rate                         : 384 Kbps\nChannel(s)                       : 6 channels\nChannel positions                : Front: L C R, Side: L R, LFE\nSampling rate                    : 48.0 KHz\nBit depth                        : 16 bits\nCompression mode                 : Lossy\nStream size                      : 171 MiB (21%)\nTitle                            : English\nLanguage                         : English\n\nAudio #2\nID                               : 3\nFormat                           : Vorbis\nFormat settings, Floor           : 1\nCodec ID                         : A_VORBIS\nDuration                         : 1h 2mn\nBit rate                         : 64.0 Kbps\nMinimum bit rate                 : 64.0 Kbps\nMaximum bit rate                 : 64.0 Kbps\nChannel(s)                       : 2 channels\nSampling rate                    : 48.0 KHz\nCompression mode                 : Lossy\nStream size                      : 28.4 MiB (3%)\nTitle                            : Commentary\nWriting library                  : libVorbis 1.1.1/1.1.2 (UTC 2005-03-04)\nLanguage                         : English\n\nText\nID                               : 4\nFormat                           : UTF-8\nCodec ID                         : S_TEXT/UTF8\nCodec ID/Info                    : UTF-8 Plain Text\nTitle                            : English\nLanguage                         : English\n","torrent":{"xt":"urn:btih:29b1582275d66f9a5ffa80bf9bcbd567aa3e5e6a","amp;dn":"The.Wire.S01.DVDRiP.x264.DBO","amp;tr":["udp%3A%2F%2Ftracker.openbittorrent.com%3A80","udp%3A%2F%2Fopen.demonii.com%3A1337","udp%3A%2F%2Ftracker.coppersurfer.tk%3A6969","udp%3A%2F%2Fexodus.desync.com%3A6969"],"infoHash":"29b1582275d66f9a5ffa80bf9bcbd567aa3e5e6a","infoHashBuffer":{"type":"Buffer","data":[41,177,88,34,117,214,111,154,95,250,128,191,155,203,213,103,170,62,94,106]},"announce":[],"urlList":[]}}